<svg width="116" height="66" viewBox="0 0 116 66" fill="none" xmlns="http://www.w3.org/2000/svg">
<path d="M15.25 27.2085C15.25 28.9954 14.9531 30.2364 14.3594 30.9313C13.7656 31.6262 12.875 31.9737 11.6875 31.9737C12.2812 31.9737 12.8008 32.1102 13.2461 32.3832C13.6914 32.6562 14.0625 33.016 14.3594 33.4628C14.6562 33.9095 14.8789 34.4183 15.0273 34.9891C15.1758 35.5599 15.25 36.1432 15.25 36.7388V65.3299H10.5V35.5475C10.5 34.9519 10.3639 34.4927 10.0918 34.1701C9.81966 33.8475 9.46094 33.6117 9.01562 33.4628C8.57031 33.3139 8.06315 33.227 7.49414 33.2022C6.92513 33.1774 6.34375 33.1649 5.75 33.1649V65.3299H1V1H5.75C6.9375 1 8.10026 1.03723 9.23828 1.11168C10.3763 1.16132 11.3906 1.37228 12.2812 1.74456C13.1719 2.11684 13.8893 2.71249 14.4336 3.5315C14.9779 4.3257 15.25 5.46735 15.25 6.95647V27.2085ZM10.5 6.95647C10.5 6.36082 10.4134 5.90168 10.2402 5.57904C10.0918 5.2564 9.83203 5.02062 9.46094 4.87171C9.08984 4.7228 8.59505 4.63593 7.97656 4.61111C7.38281 4.58629 6.64062 4.57388 5.75 4.57388V30.7824C6.34375 30.7824 6.92513 30.77 7.49414 30.7451C8.06315 30.7203 8.57031 30.6334 9.01562 30.4845C9.46094 30.3356 9.81966 30.0998 10.0918 29.7772C10.3639 29.4546 10.5 28.9954 10.5 28.3998V6.95647Z" fill="white"/>
<path d="M34.25 59.9691C34.25 61.0115 34.0521 61.9173 33.6562 62.6867C33.2852 63.4313 32.778 64.0517 32.1348 64.5481C31.4915 65.0445 30.7617 65.4044 29.9453 65.6277C29.1289 65.8759 28.2878 66 27.4219 66C26.5065 66 25.6035 65.8635 24.7129 65.5905C23.8223 65.3423 23.0306 64.97 22.3379 64.4737C21.6452 63.9525 21.0762 63.3196 20.6309 62.575C20.2103 61.8057 20 60.937 20 59.9691V13.5086C20 12.5655 20.2103 11.7341 20.6309 11.0143C21.0762 10.2698 21.6452 9.64929 22.3379 9.15292C23.0553 8.65655 23.8594 8.28427 24.75 8.03608C25.6406 7.76308 26.5436 7.62658 27.459 7.62658C28.3249 7.62658 29.166 7.75067 29.9824 7.99885C30.7988 8.22222 31.5163 8.58209 32.1348 9.07847C32.778 9.55002 33.2852 10.1581 33.6562 10.9026C34.0521 11.6472 34.25 12.5158 34.25 13.5086V59.9691ZM29.5 13.5086C29.5 12.6648 29.2897 12.0691 28.8691 11.7216C28.4733 11.3494 28.0033 11.1632 27.459 11.1632C27.1374 11.1632 26.8158 11.2253 26.4941 11.3494C26.1725 11.4486 25.8757 11.61 25.6035 11.8333C25.3561 12.0319 25.1458 12.2801 24.9727 12.5779C24.8242 12.8509 24.75 13.1611 24.75 13.5086V59.9691C24.75 60.3165 24.8242 60.6392 24.9727 60.937C25.1458 61.2348 25.3561 61.483 25.6035 61.6816C25.8757 61.8801 26.1602 62.0414 26.457 62.1655C26.7786 62.2648 27.1003 62.3144 27.4219 62.3144C27.9661 62.3144 28.4486 62.1407 28.8691 61.7932C29.2897 61.421 29.5 60.8129 29.5 59.9691V13.5086Z" fill="white"/>
<path d="M52.0625 65.3299H47.3125L46.5703 52.9702H43.2676L42.5625 65.3299H37.8125L42.5625 8.14777H47.3125L52.0625 65.3299ZM46.3105 49.0985L44.9375 20.0607L43.5273 49.0985H46.3105Z" fill="white"/>
<path d="M68.6875 28.3998H63.9375V13.5086C63.9375 12.6151 63.752 11.9947 63.3809 11.6472C63.0098 11.2997 62.6016 11.126 62.1562 11.126C61.7109 11.126 61.3027 11.2997 60.9316 11.6472C60.5605 11.9947 60.375 12.6151 60.375 13.5086C60.375 16.1642 60.4987 18.6088 60.7461 20.8425C60.9935 23.0762 61.3151 25.1361 61.7109 27.0223C62.1068 28.9086 62.5521 30.6334 63.0469 32.197C63.5417 33.7358 64.0365 35.1504 64.5312 36.441C64.9271 37.4586 65.36 38.6375 65.8301 39.9777C66.3249 41.3179 66.7826 42.9187 67.2031 44.7801C67.6237 46.6415 67.9701 48.8131 68.2422 51.295C68.5391 53.7768 68.6875 56.6682 68.6875 59.9691C68.6875 61.0115 68.502 61.9173 68.1309 62.6867C67.7598 63.4313 67.265 64.0517 66.6465 64.5481C66.028 65.0197 65.3229 65.3671 64.5312 65.5905C63.7643 65.8139 62.9727 65.9255 62.1562 65.9255C61.3398 65.9255 60.5358 65.8139 59.7441 65.5905C58.9772 65.3671 58.2845 65.0197 57.666 64.5481C57.0475 64.0517 56.5527 63.4313 56.1816 62.6867C55.8105 61.9173 55.625 61.0115 55.625 59.9691V45.0779H60.375V59.9691C60.375 60.8625 60.5605 61.483 60.9316 61.8305C61.3027 62.1779 61.7109 62.3517 62.1562 62.3517C62.6016 62.3517 63.0098 62.1779 63.3809 61.8305C63.752 61.483 63.9375 60.8625 63.9375 59.9691C63.9375 56.7675 63.7767 53.963 63.4551 51.5556C63.1582 49.1233 62.7747 46.9889 62.3047 45.1523C61.8346 43.291 61.3151 41.6653 60.7461 40.2755C60.2018 38.8856 59.6947 37.6075 59.2246 36.441C58.7546 35.2994 58.2969 33.9964 57.8516 32.5321C57.431 31.0678 57.0475 29.4049 56.7012 27.5435C56.3796 25.6821 56.1198 23.5974 55.9219 21.2892C55.724 18.9563 55.625 16.3627 55.625 13.5086C55.625 12.4662 55.8105 11.5727 56.1816 10.8282C56.5527 10.0836 57.0475 9.47556 57.666 9.00401C58.2845 8.50764 58.9772 8.14777 59.7441 7.9244C60.5358 7.67621 61.3398 7.55212 62.1562 7.55212C62.9727 7.55212 63.7643 7.67621 64.5312 7.9244C65.3229 8.14777 66.028 8.50764 66.6465 9.00401C67.265 9.47556 67.7598 10.0836 68.1309 10.8282C68.502 11.5727 68.6875 12.4662 68.6875 13.5086V28.3998Z" fill="white"/>
<path d="M85.9062 8.14777V11.7216H81.1562V65.3299H76.4062V11.7216H71.6562V8.14777H85.9062Z" fill="white"/>
<path d="M98.375 11.7216H93.625V33.1649H98.375V36.7388H93.625V61.756H98.375V65.3299H88.875V8.14777H98.375V11.7216Z" fill="white"/>
<path d="M115 31.9737C115 33.1649 114.703 34.0832 114.109 34.7285C113.516 35.3738 112.625 35.833 111.438 36.106C112.625 36.4286 113.516 36.9126 114.109 37.5578C114.703 38.2031 115 39.1214 115 40.3127V65.3299H110.25V40.3127C110.25 39.7171 110.176 39.2579 110.027 38.9353C109.879 38.6126 109.656 38.3769 109.359 38.228C109.062 38.079 108.691 37.9922 108.246 37.9674C107.801 37.9425 107.281 37.9301 106.688 37.9301V65.3299H101.938V8.14777H107.281C108.889 8.14777 110.262 8.28427 111.4 8.55727C112.563 8.80546 113.454 9.26461 114.072 9.93471C114.691 10.58 115 11.5727 115 12.9129V31.9737ZM110.25 14.1042C110.25 13.5086 110.176 13.0494 110.027 12.7268C109.879 12.4042 109.656 12.1684 109.359 12.0195C109.062 11.8706 108.691 11.7837 108.246 11.7589C107.801 11.7341 107.281 11.7216 106.688 11.7216V34.3562C107.281 34.3562 107.801 34.3438 108.246 34.319C108.691 34.2942 109.062 34.2073 109.359 34.0584C109.656 33.9095 109.879 33.6737 110.027 33.3511C110.176 33.0284 110.25 32.5693 110.25 31.9737V14.1042Z" fill="white"/>
</svg>
